<?xml version="1.0" encoding="UTF-8" standalone="no"?>
<svg
   xmlns:dc="http://purl.org/dc/elements/1.1/"
   xmlns:cc="http://creativecommons.org/ns#"
   xmlns:rdf="http://www.w3.org/1999/02/22-rdf-syntax-ns#"
   xmlns:svg="http://www.w3.org/2000/svg"
   xmlns="http://www.w3.org/2000/svg"
   version="1.1"
   id="svg2"
   viewBox="0 0 515.67238 655.51181"
   height="18.5cm"
   width="14.55342cm">
  <defs
     id="defs4" />
  <metadata
     id="metadata7">
    <rdf:RDF>
      <cc:Work
         rdf:about="">
        <dc:format>image/svg+xml</dc:format>
        <dc:type
           rdf:resource="http://purl.org/dc/dcmitype/StillImage" />
        <dc:title></dc:title>
      </cc:Work>
    </rdf:RDF>
  </metadata>
  <g
     transform="translate(-156.68011,-190.87531)"
     id="layer1">
    <g
       id="g4272">
      <g
         transform="matrix(1.0670863,0,0,1.0670863,-96.414458,12.784125)"
         id="g4199">
        <path
           style="fill:#cce5ff;fill-opacity:1;fill-rule:evenodd;stroke:none;stroke-width:0.5;stroke-linecap:butt;stroke-linejoin:miter;stroke-miterlimit:4;stroke-dasharray:none;stroke-opacity:1"
           d="m 572.12699,316.99013 -14.32433,22.09778 -17.4003,15.71052 -5.55434,-2.29251 -12.27766,1.46715 -9.65196,6.67687 -1.20663,4.99428 -4.81303,4.17539 -0.088,6.49002 -3.21814,4.40755 2.97999,10.37426 -26.15341,2.47858 6.15247,66.94051 -6.46796,-0.50234 -22.16275,20.14155 43.24712,12.22202 -0.13412,20.86268 -3.27637,5.89147 5.52773,3.96556 -12.91056,13.3996 12.26214,12.36636 3.90117,18.71269 5.39906,3.3473 -18.37645,18.63191 3.93225,28.11944 -48.71795,6.30278 -10.08446,-5.53357 12.38164,20.2613 1.64891,7.71034 9.86592,8.38855 19.05682,0.29228 42.50758,33.53923 12.48617,-0.19289 -7.26483,40.854 3.8539,8.97473 -1.04255,4.81807 -3.92244,2.95906 27.06375,13.65446 23.72641,9.62483 8.61053,1.50661 26.29012,-4.4364 13.6968,-19.67969 3.70673,-13.84264 11.00627,-17.254 0.42805,-23.67644 -7.72908,-41.19585 -2.54787,-5.9778 -0.49279,-11.54168 3.06496,-3.45597 4.41477,-0.22042 7.05799,2.95091 4.60641,9.69256 3.67186,-5.24408 4.62781,6.34947 5.8839,-0.1118 3.23255,-3.88151 -0.92006,-5.58762 -10.0335,-3.0477 -8.48339,-11.94055 -6.86155,0.24785 -27.69736,-28.74185 1.47717,-5.98944 5.46934,-0.0938 -10.10885,-15.88221 11.40968,-9.83576 4.43894,4.22171 6.82185,0.18263 4.41872,6.56948 8.03306,-6.06215 7.8783,6.82079 5.97425,-0.0632 9.655,15.25639 6.92245,0.47877 4.35939,-7.48497 0.42916,-15.47432 6.50196,-2.57116 4.86525,3.94475 16.55558,-25.31795 -0.55685,-14.24742 -6.51171,-19.6644 -17.09122,-1.93311 -11.4553,-8.40859 -5.44128,6.69694 -0.45606,15.78131 3.58107,6.26022 -0.30686,9.22771 -4.73171,2.05218 -4.52531,9.89532 -6.93724,-5.5789 -3.7928,-9.18437 -6.95051,-4.92129 -16.84877,0.36865 -18.12064,-55.69921 -13.67369,-22.59006 -14.37907,-15.96752 -8.7261,-1.63715 -12.38035,-18.19034 -12.46237,-3.52055 0.319,-6.2101 3.91614,-2.01505 4.68801,3.81108 3.61469,-4.08666 -2.01233,-5.4225 -0.18381,-12.99939 -2.22219,-4.70078 -1.33757,-22.15556 7.73145,-0.33854 15.07766,-14.54891 10.75013,-7.0588 z"
           id="path4186" />
        <path
           style="fill:#ccffb2;fill-opacity:1;fill-rule:evenodd;stroke:none;stroke-width:0.5;stroke-linecap:butt;stroke-linejoin:miter;stroke-miterlimit:4;stroke-dasharray:none;stroke-opacity:1"
           d="m 403.27776,444.66101 80.93772,-8.16803 2.04827,23.90396 -6.64015,-0.13332 -21.3973,19.59415 42.92849,12.53864 -0.0134,20.87555 -3.17254,5.50543 5.09254,4.48459 -12.43828,13.18166 11.95109,12.68602 3.88816,17.93102 5.52714,3.94305 -18.27747,18.67217 4.16638,27.99877 -49.01607,6.45343 -9.79373,-5.48812 11.71962,19.5449 1.83336,7.73231 10.34863,8.74697 18.26053,0.25283 43.21716,33.76344 12.34001,-0.24095 -7.41243,39.6568 -5.81962,1.01303 -2.73958,3.35314 -0.4407,7.99046 -10.11671,-6.19001 -25.00378,24.94139 -9.0072,0.64122 -0.12615,-10.96263 24.72684,-20.93985 -0.3607,-10.03903 -3.21688,-8.90469 -11.42188,-20.41132 -10.81827,-4.4681 -14.41065,-2.18783 -27.789,-0.027 -2.21856,-16.94 -9.608,-27.21082 -9.66092,-4.6664 -16.02468,-3.06589 -21.80372,0.72797 -17.98336,-3.71915 1.62377,-2.41724 8.09868,-0.88089 13.13629,-9.50358 19.96917,-7.47222 -3.47287,-12.24966 11.03832,-14.22061 1.1697,-7.14218 2.85192,-3.294 -0.0605,-5.71342 -4.45529,-8.31655 -6.20939,-4.06483 -8.17212,-11.01003 6.63853,-0.24656 -7.46096,-14.60033 -3.93647,-12.99278 8.59624,-7.35595 -4.50562,-8.21886 19.65359,-4.99849 -0.54339,-7.20324 2.17815,-9.42536 -1.87078,-5.97749 -15.74719,-18.26751 z"
           id="path4184" />
        <path
           style="fill:#ffb2b6;fill-opacity:1;fill-rule:evenodd;stroke:none;stroke-width:0.5;stroke-linecap:butt;stroke-linejoin:miter;stroke-miterlimit:4;stroke-dasharray:none;stroke-opacity:1"
           d="m 452.72229,279.69363 0.19348,6.29294 -14.70658,27.48635 -14.87142,38.74893 -6.66613,24.15813 -0.12206,33.38086 -6.73455,2.5962 -15.90279,-0.30286 -4.41421,0.8518 -9.15381,9.18892 -8.01138,1.45443 -15.1565,8.41286 -31.27635,12.00844 -13.23744,7.91915 -13.88836,2.69881 -12.38793,-25.56417 16.17469,-9.40763 0.61849,-8.76257 3.0643,-2.44358 -5.31398,-9.76198 13.31655,-8.27933 -1.95802,-20.46909 -4.41574,-2.20166 -4.21022,4.98266 -39.96935,-18.93593 -1.84712,-8.48467 -6.17316,-2.39911 -7.35114,-17.44519 14.89188,-5.49775 5.76235,6.91443 25.44417,-9.81523 3.48137,-8.80737 6.26137,-6.44232 11.81673,-0.55585 5.27317,-22.18717 7.25261,-7.10206 -0.59913,-11.28877 13.25283,5.15338 8.56401,0.26678 4.71713,-3.42849 13.93829,-0.0139 -10e-4,8.03036 7.52903,6.45687 -3.95297,3.56293 5.52276,3.0722 -3.24789,4.63083 -0.87841,8.94183 2.79291,3.55871 8.66167,-3.05178 2.18664,-7.68878 -0.18053,-9.32247 4.99005,-8.1877 7.99999,0.84368 6.63584,5.79538 -0.16783,6.76091 -5.68783,15.86432 6.86967,3.829 2.84588,-6.93674 7.43616,-0.11821 0.47217,-8.65153 5.3569,-8.74269 4.8289,-0.34256 5.86295,-4.26359 z"
           id="path4182" />
        <path
           style="fill:#ffbffc;fill-opacity:1;fill-rule:evenodd;stroke:none;stroke-width:0.5;stroke-linecap:butt;stroke-linejoin:miter;stroke-miterlimit:4;stroke-dasharray:none;stroke-opacity:1"
           d="m 530.82826,183.21311 -9.65369,10.85747 0.20127,11.30728 -18.3342,14.49172 -1.12762,7.17524 2.48467,3.69593 -14.95993,8.41652 0.65546,7.34083 -4.89826,6.02076 -5.2294,0.74786 -0.56294,1.86706 -4.87953,0.55022 -2.66073,12.59702 -6.08243,7.69755 -3.09935,71.63694 6.43054,11.69286 9.71374,0.16219 4.81789,-2.42984 3.71667,-0.069 8.58005,2.77464 4.22782,-1.16023 13.47882,1.21334 8.5874,-5.58696 12.05379,-1.48161 6.00232,2.13751 17.3395,-15.56659 31.5553,-49.92807 -11.63387,-12.68866 8.64828,-7.49792 3.3894,5.75419 6.63598,-3.36285 -0.20126,-8.10029 39.24661,-26.09116 0.0647,-6.92119 -18.03972,2.79744 -31.51553,23.25991 -17.23416,-5.83663 -10.13121,4.9543 -0.25729,-35.62786 4.17906,-5.12888 0.16233,-7.40787 -17.1379,-5.81869 -0.008,-7.53232 -4.77129,0.38302 -9.07428,-3.29078 z"
           id="path4180" />
        <path
           style="fill:#cfccff;fill-opacity:1;fill-rule:evenodd;stroke:none;stroke-width:0.5;stroke-linecap:butt;stroke-linejoin:miter;stroke-miterlimit:4;stroke-dasharray:none;stroke-opacity:1"
           d="m 280.28976,457.56694 3.75106,10.47499 8.30818,-0.26589 -0.68277,9.5651 -8.29771,-0.481 0.47424,5.517 5.10762,12.82997 3.93255,13.90575 6.2095,1.84587 6.10129,6.98944 2.40934,25.03678 -5.03288,-0.17998 5.16375,13.19051 -5.50738,0.24925 -3.04527,2.58052 -1.97708,4.39302 -7.45335,1.8675 3.588,6.25418 15.5902,-0.22369 4.98732,5.30898 0.58373,22.8401 6.53299,11.26726 27.97576,5.61894 4.75156,9.33934 11.74351,-1.73684 12.42224,-9.57262 20.58269,-7.84166 -3.3859,-12.10115 10.58036,-13.74526 2.20806,-8.04438 2.18475,-2.56654 -0.0695,-5.74044 -4.7179,-8.18376 -6.02872,-4.2311 -8.54758,-11.42874 7.37365,0.0801 c -2.71115,-4.72192 -5.18061,-9.56584 -7.62691,-14.42708 l -4.34837,-13.12828 -9.37465,-0.22548 -0.41774,-5.497 -7.76647,0.93314 -2.12135,-5.1686 -3.86714,4.82162 -5.08306,-2.60648 -3.38956,-8.47174 -0.33327,-8.1907 -8.26299,-9.9566 -6.21177,-13.39159 -7.41956,-7.18064 -6.47438,-13.6238 -12.48765,7.36669 -17.33178,3.79045 z"
           id="path4176" />
        <path
           style="fill:#b2fff1;fill-opacity:1;fill-rule:evenodd;stroke:none;stroke-width:0.5;stroke-linecap:butt;stroke-linejoin:miter;stroke-miterlimit:4;stroke-dasharray:none;stroke-opacity:1"
           d="m 465.51196,276.1161 -2.80485,71.59704 6.5587,11.62569 9.28677,0.0413 5.24329,-2.44739 2.88215,-0.21563 8.90215,2.86774 3.65019,-1.07704 13.89042,1.26213 -0.95584,5.71532 -5.1908,4.11971 0.38214,6.54896 -3.73198,4.5525 2.74272,10.51093 -49.92261,4.06956 -17.3174,4.24019 -22.32684,10.54643 -0.11036,-33.61155 6.50645,-23.99098 14.75334,-38.80001 14.92214,-27.41312 0.0694,-6.60626 -17.28484,-2.74986 0.98263,-5.80898 6.60357,-0.75743 4.97036,-15.64231 6.10778,-7.34796 9.12786,0.0735 7.48037,-14.56812 7.54668,-7.01753 11.25082,-0.48496 8.00906,9.17683 -8.04704,4.63252 0.33342,7.32133 -4.55474,5.71737 -5.45046,0.94812 -0.3881,1.80111 -5.11302,0.51683 -2.4419,12.78405 z"
           id="path4174" />
        <path
           style="fill:#ffe9b2;fill-opacity:1;fill-rule:evenodd;stroke:none;stroke-width:0.5;stroke-linecap:butt;stroke-linejoin:miter;stroke-miterlimit:4;stroke-dasharray:none;stroke-opacity:1"
           d="m 480.92856,393.90794 3.37402,42.56464 -81.24464,7.99435 -9.33499,6.92923 -0.54994,-7.13208 -4.98108,-6.09067 -1.8166,-12.02783 0.98888,-11.86371 6.40069,-2.40278 16.29687,0.27026 28.40771,-12.38316 18.69673,-4.66486 z"
           id="path4164" />
        <path
           style="fill:#feffcc;fill-opacity:1;fill-rule:evenodd;stroke:none;stroke-width:0.5;stroke-linecap:butt;stroke-linejoin:miter;stroke-miterlimit:4;stroke-dasharray:none;stroke-opacity:1"
           d="m 387.56171,415.16787 -7.15016,6.44787 -9.2049,1.78277 -13.59342,8.04509 -33.11906,13.03929 7.11907,13.3132 7.67352,7.27716 6.08232,13.93221 8.51791,9.88865 0.27402,7.69988 3.90288,9.00181 4.39451,2.63699 3.802,-4.99188 1.73193,4.9764 8.56702,-0.82091 0.12167,5.90076 9.43864,0.005 9.32092,-7.32059 -4.88173,-8.80907 19.40576,-4.76896 -0.28373,-7.03992 2.13512,-9.30594 -1.56563,-5.69605 -16.40235,-19.00835 -0.77975,-7.05014 -4.83941,-6.29385 -1.58966,-11.72039 z"
           id="path4162" />
        <path
           id="path4153"
           d="m 648.6014,618.44612 -6.64336,-0.17482 -27.27272,-28.14686 1.57342,-5.94405 5.06993,0.17482 -10.13986,-16.08391 11.36364,-10.13987 4.54545,4.02098 6.81818,0.34965 4.54546,6.64336 8.04196,-6.11888 7.86713,6.99301 5.76923,-0.17483 9.79021,15.38462 6.99301,0.52447 4.54545,-7.69231 0.17483,-15.20979 6.64335,-2.62237 4.72028,4.02098 16.6084,-25.17483 -0.34965,-13.98601 -6.81819,-19.93007 -16.78321,-2.44756 -11.71329,-8.04195 -5.24476,6.81818 0,16.08391 3.67133,7.34266 -0.17482,7.34266 -5.06993,2.27273 -5.06993,9.79021 -7.16783,-6.99301 -3.84616,-8.04196 -6.2937,-4.54545 -16.95805,0.17482 -18.35664,-55.24475 -13.28671,-22.2028 -14.51049,-16.43357 -9.09091,-2.0979 -12.06294,-18.00699 -12.76224,-3.67133 0.6993,-6.11888 3.84616,-1.57343 4.72028,3.84616 3.32168,-4.37063 -1.74826,-6.29371 -0.17482,-13.46154 -2.0979,-1.22378 0.17482,-3.67132 2.62238,-0.34965 -0.17483,-2.97203 -3.84615,-0.34965 -0.17482,-17.30769 7.16783,-0.17483 15.38461,-14.33566 10.66434,-7.16784 -16.08392,-15.38461 16.95804,-26.92308 -11.88811,-12.76224 8.91609,-7.34265 3.67133,5.41958 6.46853,-3.32168 0,-8.04196 38.98601,-26.22378 -0.17482,-6.993 -17.3077,2.97202 -31.81818,23.07693 -17.30769,-5.59441 -10.13986,4.72028 -0.17483,-35.48951 4.02098,-5.41958 0,-6.99301 -16.60839,-5.5944 -0.34965,-7.51748 -4.72028,0 -9.09091,-3.49651 -0.52447,-8.91608 -9.79021,12.41259 -0.17483,11.36363 -18.35664,14.86014 -0.6993,6.64336 1.92307,2.97203 -6.64335,3.32167 -7.69231,-8.04195 -9.79021,0.17482 -8.91608,6.81818 -7.51749,14.68532 -8.56643,0 -6.81818,7.86713 -4.54546,15.38462 -6.46853,0.34965 -2.27272,5.92156 -6.29371,4.39312 -4.54546,0.17483 -5.94405,8.91608 -0.34965,8.39161 -7.16783,0.17483 -3.14686,6.993 -6.993,-4.1958 5.76923,-15.38462 0.17482,-6.81818 -6.2937,-6.29371 -7.86714,-0.17482 -5.24475,7.69231 0.34965,9.44056 -2.27273,8.04195 -8.21678,2.79721 -2.97203,-2.97203 0,-8.91608 3.4965,-4.89511 -4.72028,-2.97203 3.49651,-3.67133 -7.34266,-6.46853 -0.17483,-7.86713 -13.98601,-0.34965 -4.54545,2.7972 -8.39161,0 -13.28672,-4.37063 0.34965,10.66434 -7.16783,6.99301 -5.24475,22.37762 -11.71329,0.17482 -6.64336,6.99301 -3.14685,8.74126 -11.18881,3.14685 -14.51049,6.46853 -5.59441,-6.993 -14.51049,5.41958 7.16784,17.48251 5.94405,2.44756 1.74825,8.74126 39.68532,18.00699 4.54545,-4.54546 4.72028,2.97203 2.09791,20.45455 -13.46154,8.56643 4.54545,9.09091 -2.97203,2.27273 -0.6993,5.94405 6.64336,6.11888 -1.74825,3.14686 -6.11888,-5.59441 -14.51049,8.39161 12.41258,25 -18.35664,4.02098 3.84615,9.96503 7.34266,0.17483 -0.34965,9.09091 -7.51748,-0.17483 0.17482,5.59441 5.94406,15.20979 3.14685,11.71329 6.29371,1.3986 5.94406,7.34265 1.74825,24.82518 -4.19581,-0.17483 4.72028,13.28672 -5.24475,0 -3.32168,2.97203 -1.22378,4.1958 -8.04196,1.57343 3.14686,6.2937 16.25874,0 5.24475,5.76923 0,22.55245 6.46854,11.01399 10.48951,2.62237 17.48251,3.32168 4.37063,9.61539 19.93007,4.37063 22.72728,-0.17483 15.90909,2.7972 9.26573,4.89511 9.44056,27.0979 2.27273,16.43357 27.44755,0.34965 14.86014,2.44755 10.83916,4.54546 7.51748,13.46153 4.37063,8.56644 2.79721,7.51748 0,9.44056 -24.12588,21.67832 0.34965,9.96504 9.44056,-1.04895 24.12588,-24.3007 9.26573,6.993 1.57343,-1.92307 -0.6993,-6.64336 3.32167,-4.02098 5.70042,0.25852 3.56532,10.23099 -0.52448,4.37063 -5.24475,2.0979 10.31468,5.59441 17.48252,8.74126 23.77622,9.61538 9.09091,1.22378 25.87413,-3.84616 13.98601,-20.27972 3.49651,-13.63636 11.01398,-16.78322 0.6993,-22.72727 -4.8951,-24.82517 -2.97203,-18.007 -2.62238,-6.2937 -0.52447,-10.83916 2.97203,-3.84616 5.41958,0.17483 6.993,3.67133 2.09791,8.04195 3.32167,0 1.74826,-5.41958 4.72027,7.16783 6.81819,0 2.44755,-4.1958 -0.87413,-5.24475 -10.48951,-3.67133 z"
           style="fill:none;fill-rule:evenodd;stroke:#646464;stroke-width:5;stroke-linecap:butt;stroke-linejoin:miter;stroke-miterlimit:4;stroke-dasharray:none;stroke-opacity:1" />
        <path
           id="path4179"
           d="m 529.52128,728.95795 7.18085,-40.69149 -12.5,0.26596 -43.08511,-33.7766 -18.35106,-0.26596 -10.10639,-8.24468 -1.59574,-7.44681 -13.29787,-21.54255 10.90425,6.91489 48.93617,-6.64893 -3.98936,-27.92553 18.35107,-18.61702 -5.58511,-3.72341 -3.72341,-18.08511 -12.23404,-12.76595 12.76596,-13.03192 -5.31915,-4.52127 3.19149,-5.58511 0,-21.01064 -43.08511,-12.23404 21.54256,-19.94681 6.91489,0.26596 -6.11702,-66.75532 26.06383,-2.65958 -2.65958,-10.37234 3.19149,-4.25532 0,-6.64893 4.78724,-3.98936 1.32979,-5.31915 9.57446,-6.38298 11.70213,-1.32979 6.11702,2.12766 17.02128,-15.42553 13.08558,-20.32939 1.80804,-2.80891"
           style="fill:none;fill-rule:evenodd;stroke:#646464;stroke-width:2.5;stroke-linecap:butt;stroke-linejoin:miter;stroke-miterlimit:4;stroke-dasharray:none;stroke-opacity:1" />
        <path
           id="path4194"
           d="m 353.71792,624.95986 12.25351,-1.47042 12.41688,-9.47605 19.93238,-7.3521 -3.26761,-12.25351 10.78309,-14.05069 1.47042,-7.3521 2.61408,-3.2676 0,-5.55493 -4.24788,-7.84224 -6.37182,-4.57465 -8.33239,-11.27322 6.86197,-0.16338 -7.51549,-14.21407 -4.0845,-13.23379 8.65914,-7.3521 -4.57464,-8.33239 19.60561,-5.06478 -0.32676,-6.86197 1.96057,-9.47604 -1.47043,-5.55493 -16.01125,-18.62533 8.82253,-7.18872 81.19991,-8.00563"
           style="fill:none;fill-rule:evenodd;stroke:#646464;stroke-width:2.5;stroke-linecap:butt;stroke-linejoin:miter;stroke-miterlimit:4;stroke-dasharray:none;stroke-opacity:1" />
        <path
           id="path4209"
           d="m 301.28217,454.38138 11.68523,-2.69204 1.74481,-1.03214 10.71073,-6.33592 6.31549,13.50812 7.71893,7.19263 6.14005,13.68356 8.06979,9.47323 0.35086,8.06978 3.68403,8.94694 4.91205,2.45602 3.68403,-4.91204 2.10516,5.43833 8.06979,-1.05258 0.17543,5.61377 9.64866,0"
           style="fill:none;fill-rule:evenodd;stroke:#646464;stroke-width:2.5;stroke-linecap:butt;stroke-linejoin:miter;stroke-miterlimit:4;stroke-dasharray:none;stroke-opacity:1" />
        <path
           id="path4228"
           d="m 513.49205,359.74002 -13.56394,-1.29181 -4.30602,1.07651 -8.82732,-2.79891 -3.01421,0.2153 -5.16722,2.36831 -9.25793,0 -6.67432,-11.62624 3.01421,-71.69512 6.02842,-7.75082 2.79891,-12.70274 4.95192,-0.6459 0.4306,-1.5071 5.38251,-0.86121 4.73662,-6.02841 -0.58596,-7.45378 7.96613,-4.28693"
           style="fill:none;fill-rule:evenodd;stroke:#646464;stroke-width:2.5;stroke-linecap:butt;stroke-linejoin:miter;stroke-miterlimit:4;stroke-dasharray:none;stroke-opacity:1" />
        <a
           id="a4269"
           style="stroke:#646464;stroke-width:2.5;stroke-miterlimit:4;stroke-dasharray:none;stroke-opacity:1">
          <path
             style="fill:none;fill-rule:evenodd;stroke:#646464;stroke-width:2.5;stroke-linecap:butt;stroke-linejoin:miter;stroke-miterlimit:4;stroke-dasharray:none;stroke-opacity:1"
             d="m 480.44755,393.56272 -24.32867,1.57524 -17.50264,4.55068 -21.87831,9.97651 -0.17502,-33.43005 6.47597,-23.27851 14.87725,-39.20593 14.87725,-27.47914 0,-6.47598 -18.21379,-2.97545"
             id="path4241" />
        </a>
        <path
           id="path4254"
           d="m 326.28956,443.83284 31.44334,-12.01607 14.53735,-8.40886 8.12382,-1.42523 6.98363,-6.98363 -1.14019,10.68923 1.56776,11.82941 5.13083,6.69859 0.60635,7.2108"
           style="fill:none;fill-rule:evenodd;stroke:#646464;stroke-width:2.5;stroke-linecap:butt;stroke-linejoin:miter;stroke-miterlimit:4;stroke-dasharray:none;stroke-opacity:1" />
        <path
           id="path4267"
           d="m 417.22574,409.50066 -7.12018,2.70075 -16.69557,-0.16368 -4.23269,0.81871 -1.87526,2.5897"
           style="fill:none;fill-rule:evenodd;stroke:#646464;stroke-width:2.5;stroke-linecap:butt;stroke-linejoin:miter;stroke-miterlimit:4;stroke-dasharray:none;stroke-opacity:1" />
      </g>
    </g>
  </g>
</svg>
